<svg xmlns="http://www.w3.org/2000/svg" viewBox="0 0 96 96" style="width:100%;height:100%;display:block" role="img" aria-labelledby="al-acl-t">
<title id="al-acl-t">Audio library</title>
<defs>
<linearGradient id="al-lit" gradientUnits="userSpaceOnUse" x1="5" y1="-3" x2="98" y2="114"><stop offset="0" stop-color="#FFD280"/><stop offset=".2" stop-color="#F6D55C"/><stop offset=".47" stop-color="#E6BC5C"/><stop offset=".76" stop-color="#D4A539"/><stop offset="1" stop-color="#B38B30"/></linearGradient>
<linearGradient id="al-litB" gradientUnits="userSpaceOnUse" x1="4" y1="0" x2="46" y2="48"><stop offset="0" stop-color="#FFD280"/><stop offset=".5" stop-color="#F6D55C"/><stop offset="1" stop-color="#E6BC5C"/></linearGradient>
<radialGradient id="al-pool" gradientUnits="userSpaceOnUse" cx="48.4" cy="44.33" r="43.82"><stop offset="0" stop-color="#E6BC5C" stop-opacity=".115"/><stop offset=".4" stop-color="#E6BC5C" stop-opacity=".05"/><stop offset="1" stop-color="#E6BC5C" stop-opacity="0"/></radialGradient>
<radialGradient id="al-bloom" gradientUnits="userSpaceOnUse" cx="25.71" cy="14.86" r="21.38"><stop offset="0" stop-color="#FFD280" stop-opacity=".44"/><stop offset=".14" stop-color="#FFD280" stop-opacity=".2"/><stop offset=".42" stop-color="#F6D55C" stop-opacity=".05"/><stop offset=".66" stop-color="#F6D55C" stop-opacity="0"/></radialGradient>
<radialGradient id="al-starF" gradientUnits="userSpaceOnUse" cx="25.71" cy="14.86" r="12.4"><stop offset="0" stop-color="#FFF6DE"/><stop offset=".1" stop-color="#FFD280"/><stop offset=".4" stop-color="#F6D55C"/><stop offset=".75" stop-color="#E6BC5C"/><stop offset="1" stop-color="#D4A539"/></radialGradient>
<radialGradient id="al-disc" gradientUnits="userSpaceOnUse" cx="37.28" cy="32.36" r="36.34"><stop offset="0" stop-color="#1D2450"/><stop offset=".42" stop-color="#0C1133"/><stop offset="1" stop-color="#080B20"/></radialGradient>
<linearGradient id="al-grv" gradientUnits="userSpaceOnUse" x1="28.09" y1="24.02" x2="69.24" y2="65.18"><stop offset="0" stop-color="#FFD280" stop-opacity=".85"/><stop offset=".3" stop-color="#F6D55C" stop-opacity=".5"/><stop offset=".64" stop-color="#D4A539" stop-opacity=".2"/><stop offset="1" stop-color="#B38B30" stop-opacity=".34"/></linearGradient>
<linearGradient id="al-sheen" gradientUnits="userSpaceOnUse" x1="23.28" y1="19.21" x2="61.22" y2="57.16"><stop offset="0" stop-color="#FFFFFF" stop-opacity=".03"/><stop offset=".26" stop-color="#FFFFFF" stop-opacity=".17"/><stop offset=".46" stop-color="#FFD280" stop-opacity=".06"/><stop offset=".8" stop-color="#FFD280" stop-opacity="0"/></linearGradient>
<radialGradient id="al-label" gradientUnits="userSpaceOnUse" cx="44.12" cy="39.52" r="16.89"><stop offset="0" stop-color="#FFE9B6"/><stop offset=".26" stop-color="#FFD280"/><stop offset=".5" stop-color="#F6D55C"/><stop offset=".74" stop-color="#E6BC5C"/><stop offset=".92" stop-color="#D4A539"/><stop offset="1" stop-color="#B38B30"/></radialGradient>
<radialGradient id="al-hole" gradientUnits="userSpaceOnUse" cx="49.79" cy="45.94" r="5.77"><stop offset="0" stop-color="#0C1133"/><stop offset="1" stop-color="#080B20"/></radialGradient>
<linearGradient id="al-pgL" gradientUnits="userSpaceOnUse" x1="38.38" y1="69.16" x2="54.95" y2="87.76"><stop offset="0" stop-color="#F6D55C" stop-opacity=".075"/><stop offset="1" stop-color="#D4A539" stop-opacity=".018"/></linearGradient>
<linearGradient id="al-pgR" gradientUnits="userSpaceOnUse" x1="56.02" y1="73.65" x2="72.26" y2="86.05"><stop offset="0" stop-color="#E6BC5C" stop-opacity=".04"/><stop offset="1" stop-color="#B38B30" stop-opacity=".012"/></linearGradient>
<linearGradient id="al-wf1" gradientUnits="userSpaceOnUse" x1="0" y1="31.13" x2="0" y2="57.13"><stop offset="0" stop-color="#F6D55C" stop-opacity=".72"/><stop offset=".1" stop-color="#F6D55C" stop-opacity="1"/><stop offset=".74" stop-color="#E6BC5C" stop-opacity="1"/><stop offset="1" stop-color="#D4A539" stop-opacity=".72"/></linearGradient>
<linearGradient id="al-wf2" gradientUnits="userSpaceOnUse" x1="0" y1="27.64" x2="0" y2="60.62"><stop offset="0" stop-color="#F6D55C" stop-opacity=".72"/><stop offset=".1" stop-color="#F6D55C" stop-opacity="1"/><stop offset=".74" stop-color="#E6BC5C" stop-opacity="1"/><stop offset="1" stop-color="#D4A539" stop-opacity=".72"/></linearGradient>
<linearGradient id="al-litUp" gradientUnits="userSpaceOnUse" x1="5" y1="-3" x2="98" y2="114"><stop offset="0" stop-color="#FFD280"/><stop offset=".42" stop-color="#F6D55C"/><stop offset="1" stop-color="#E6BC5C"/></linearGradient>
<linearGradient id="al-rim" gradientUnits="userSpaceOnUse" x1="25.41" y1="21.35" x2="71.38" y2="67.31"><stop offset="0" stop-color="#FFD280"/><stop offset=".3" stop-color="#F6D55C"/><stop offset=".62" stop-color="#E6BC5C"/><stop offset="1" stop-color="#D4A539"/></linearGradient>
</defs>
<circle cx="48.4" cy="44.33" r="43.82" fill="url(#al-pool)"/>
<circle cx="25.71" cy="14.86" r="21.38" fill="url(#al-bloom)"/>
<g fill="url(#al-lit)">
<path d="M 34.59 12.11 L 35.78 11.4 L 37.04 10.79 L 38.33 10.25 L 39.64 9.77 L 40.98 9.36 L 42.34 9.02 L 43.72 8.74 L 45.11 8.53 L 46.51 8.39 L 47.91 8.31 L 49.32 8.29 L 50.73 8.32 L 52.13 8.41 L 53.53 8.55 L 54.92 8.75 L 56.31 9 L 57.68 9.3 L 59.04 9.66 L 60.39 10.07 L 61.72 10.53 L 63.03 11.04 L 64.32 11.6 L 65.58 12.21 L 66.82 12.87 L 68.04 13.58 L 69.23 14.33 L 70.38 15.13 L 71.51 15.98 L 72.6 16.86 L 73.66 17.79 L 74.68 18.76 L 75.66 19.77 L 76.6 20.81 L 77.5 21.89 L 78.36 23.01 L 79.17 24.16 L 79.94 25.33 L 80.66 26.54 L 81.34 27.77 L 81.97 29.03 L 82.54 30.32 L 83.07 31.62 L 83.55 32.94 L 83.97 34.28 L 84.35 35.64 L 84.67 37.01 L 84.93 38.39 L 85.15 39.78 L 85.3 41.18 L 85.41 42.58 L 85.46 43.99 L 85.46 45.39 L 85.4 46.8 L 85.28 48.2 L 85.12 49.6 L 84.89 50.98 L 84.62 52.36 L 84.29 53.73 L 83.91 55.09 L 83.48 56.42 L 82.99 57.74 L 82.46 59.04 L 81.87 60.32 L 81.23 61.57 L 80.52 62.79 L 79.76 63.97 L 78.94 65.11 L 78.07 66.21 L 77.14 67.26 L 76.17 68.26 L 75.14 69.2 L 74.04 70.05 L 74.04 70.05 L 74.86 68.94 L 75.7 67.85 L 76.5 66.74 L 77.28 65.61 L 78.01 64.47 L 78.72 63.31 L 79.39 62.13 L 80.02 60.93 L 80.62 59.72 L 81.18 58.49 L 81.7 57.24 L 82.16 55.97 L 82.58 54.68 L 82.95 53.38 L 83.26 52.07 L 83.53 50.74 L 83.74 49.4 L 83.9 48.06 L 84.01 46.71 L 84.07 45.36 L 84.07 44.01 L 84.02 42.66 L 83.92 41.31 L 83.77 39.96 L 83.56 38.63 L 83.31 37.3 L 83 35.98 L 82.64 34.68 L 82.23 33.39 L 81.77 32.12 L 81.27 30.86 L 80.71 29.63 L 80.11 28.42 L 79.46 27.23 L 78.76 26.07 L 78.02 24.94 L 77.24 23.84 L 76.42 22.76 L 75.55 21.72 L 74.64 20.72 L 73.7 19.75 L 72.72 18.82 L 71.7 17.93 L 70.65 17.07 L 69.57 16.26 L 68.46 15.49 L 67.32 14.77 L 66.15 14.09 L 64.95 13.45 L 63.74 12.86 L 62.5 12.32 L 61.24 11.83 L 59.96 11.39 L 58.66 10.99 L 57.35 10.65 L 56.03 10.36 L 54.7 10.12 L 53.36 9.93 L 52.02 9.8 L 50.67 9.71 L 49.32 9.68 L 47.96 9.7 L 46.61 9.77 L 45.26 9.89 L 43.92 10.04 L 42.58 10.23 L 41.24 10.46 L 39.9 10.73 L 38.57 11.03 L 37.25 11.38 L 35.93 11.75 L 34.59 12.11 Z"/>
<path d="M 32.74 76.15 L 32.13 76.1 L 31.56 75.96 L 31.01 75.77 L 30.47 75.56 L 29.96 75.31 L 29.45 75.03 L 28.97 74.72 L 28.5 74.4 L 28.03 74.07 L 27.57 73.73 L 27.11 73.39 L 26.66 73.03 L 26.21 72.68 L 25.77 72.3 L 25.36 71.9 L 24.97 71.48 L 24.61 71.03 L 24.28 70.55 L 23.97 70.05 L 23.74 69.48 L 23.74 69.48 L 24.31 69.71 L 24.81 69.99 L 25.3 70.29 L 25.76 70.6 L 26.22 70.92 L 26.66 71.25 L 27.09 71.6 L 27.52 71.94 L 27.95 72.28 L 28.39 72.62 L 28.84 72.94 L 29.29 73.26 L 29.74 73.57 L 30.2 73.88 L 30.65 74.2 L 31.08 74.55 L 31.52 74.9 L 31.94 75.28 L 32.36 75.68 L 32.74 76.15 Z"/>
<path d="M 18.26 62.21 L 17.33 61.14 L 16.55 59.96 L 15.87 58.73 L 15.27 57.45 L 14.77 56.13 L 14.35 54.78 L 13.98 53.42 L 13.66 52.04 L 13.4 50.66 L 13.19 49.26 L 13.04 47.86 L 12.94 46.45 L 12.89 45.04 L 12.9 43.63 L 12.96 42.22 L 13.08 40.81 L 13.28 39.42 L 13.58 38.04 L 13.98 36.69 L 14.49 35.37 L 15.16 34.11 L 15.16 34.11 L 15.06 35.52 L 14.91 36.89 L 14.75 38.25 L 14.61 39.61 L 14.47 40.96 L 14.35 42.31 L 14.29 43.67 L 14.28 45.02 L 14.32 46.38 L 14.42 47.73 L 14.57 49.08 L 14.77 50.43 L 15.02 51.76 L 15.33 53.08 L 15.68 54.39 L 16.09 55.69 L 16.52 56.97 L 16.96 58.26 L 17.41 59.56 L 17.86 60.86 L 18.26 62.21 Z"/>
</g>
<path d="M 36.94 14.86 L 28.54 16.15 L 31.9 21.33 L 26.88 17.64 L 25.71 26.8 L 24.55 17.64 L 19.52 21.33 L 22.89 16.15 L 14.49 14.86 L 22.89 13.58 L 19.52 8.4 L 24.55 12.09 L 25.71 2.93 L 26.88 12.09 L 31.9 8.4 L 28.54 13.58 Z" fill="url(#al-starF)"/>
<path d="M 13.42 22.13 C 13.42 24.62 14.65 26.19 16.59 26.19 C 14.65 26.19 13.42 27.77 13.42 30.26 C 13.42 27.77 12.2 26.19 10.26 26.19 C 12.2 26.19 13.42 24.62 13.42 22.13 Z" fill="url(#al-litB)"/>
<path d="M 18.98 28.76 C 18.98 30.1 20.09 31.49 21.17 31.49 C 20.09 31.49 18.98 32.87 18.98 34.21 C 18.98 32.87 17.87 31.49 16.79 31.49 C 17.87 31.49 18.98 30.1 18.98 28.76 Z" fill="url(#al-litB)"/>
<path d="M 71.91 31.3 L 72.5 31.7 L 73.01 32.17 L 73.46 32.7 L 73.82 33.27 L 74.12 33.87 L 74.4 34.49 L 74.67 35.11 L 74.91 35.74 L 75.14 36.37 L 75.35 37.02 L 75.54 37.66 L 75.71 38.32 L 75.87 38.97 L 76.01 39.64 L 76.12 40.3 L 76.22 40.97 L 76.3 41.64 L 76.36 42.31 L 76.41 42.99 L 76.43 43.66 L 76.43 44.34 L 76.42 45.01 L 76.38 45.69 L 76.33 46.36 L 76.26 47.03 L 76.16 47.7 L 76.05 48.37 L 75.92 49.03 L 75.78 49.69 L 75.61 50.35 L 75.42 51 L 75.22 51.64 L 75 52.28 L 74.76 52.91 L 74.5 53.54 L 74.23 54.15 L 73.94 54.76 L 73.63 55.36 L 73.25 55.93 L 72.8 56.44 L 72.28 56.9 L 71.68 57.3 L 71.68 57.3 L 71.81 56.6 L 71.99 55.95 L 72.2 55.33 L 72.46 54.74 L 72.75 54.17 L 73.03 53.6 L 73.29 53.02 L 73.53 52.43 L 73.75 51.83 L 73.96 51.23 L 74.16 50.62 L 74.33 50 L 74.49 49.38 L 74.63 48.76 L 74.75 48.14 L 74.85 47.51 L 74.94 46.87 L 75.01 46.24 L 75.06 45.6 L 75.09 44.97 L 75.11 44.33 L 75.1 43.69 L 75.08 43.05 L 75.04 42.41 L 74.98 41.78 L 74.91 41.15 L 74.82 40.51 L 74.7 39.89 L 74.58 39.26 L 74.43 38.64 L 74.27 38.02 L 74.08 37.41 L 73.89 36.8 L 73.67 36.2 L 73.44 35.61 L 73.19 35.02 L 72.92 34.44 L 72.64 33.87 L 72.39 33.28 L 72.19 32.66 L 72.02 32 L 71.91 31.3 Z" fill="url(#al-wf1)"/>
<path d="M 75.15 27.57 L 75.84 28.06 L 76.45 28.63 L 76.99 29.25 L 77.46 29.92 L 77.86 30.64 L 78.24 31.37 L 78.59 32.11 L 78.92 32.85 L 79.24 33.61 L 79.52 34.38 L 79.79 35.15 L 80.04 35.93 L 80.26 36.72 L 80.46 37.51 L 80.64 38.31 L 80.79 39.12 L 80.92 39.93 L 81.03 40.74 L 81.12 41.55 L 81.18 42.37 L 81.22 43.19 L 81.23 44.01 L 81.22 44.82 L 81.19 45.64 L 81.14 46.46 L 81.06 47.27 L 80.96 48.09 L 80.83 48.9 L 80.69 49.7 L 80.52 50.5 L 80.32 51.3 L 80.11 52.09 L 79.87 52.87 L 79.61 53.65 L 79.33 54.42 L 79.02 55.18 L 78.7 55.93 L 78.35 56.67 L 77.98 57.4 L 77.59 58.12 L 77.12 58.79 L 76.58 59.42 L 75.98 59.99 L 75.3 60.5 L 75.3 60.5 L 75.53 59.69 L 75.8 58.92 L 76.1 58.19 L 76.44 57.48 L 76.81 56.79 L 77.16 56.09 L 77.49 55.38 L 77.8 54.67 L 78.09 53.94 L 78.36 53.21 L 78.61 52.47 L 78.83 51.72 L 79.04 50.97 L 79.22 50.21 L 79.39 49.44 L 79.53 48.68 L 79.64 47.9 L 79.74 47.13 L 79.82 46.35 L 79.87 45.57 L 79.9 44.79 L 79.91 44.01 L 79.89 43.23 L 79.85 42.45 L 79.8 41.67 L 79.71 40.89 L 79.61 40.12 L 79.49 39.35 L 79.34 38.58 L 79.17 37.82 L 78.98 37.06 L 78.77 36.31 L 78.53 35.57 L 78.28 34.83 L 78 34.1 L 77.71 33.37 L 77.39 32.66 L 77.05 31.96 L 76.69 31.26 L 76.32 30.57 L 75.98 29.87 L 75.67 29.13 L 75.39 28.37 L 75.15 27.57 Z" fill="url(#al-wf2)"/>
<g>
<circle cx="48.4" cy="44.33" r="22.85" fill="url(#al-disc)"/>
<circle cx="48.4" cy="44.33" r="16.67" fill="none" stroke="url(#al-sheen)" stroke-width="11.12"/>
<circle cx="48.4" cy="44.33" r="12.93" fill="none" stroke="url(#al-grv)" stroke-opacity="0.8" stroke-width="0.38"/>
<circle cx="48.4" cy="44.33" r="14.22" fill="none" stroke="url(#al-grv)" stroke-opacity="0.44" stroke-width="0.38"/>
<circle cx="48.4" cy="44.33" r="15.61" fill="none" stroke="url(#al-grv)" stroke-opacity="0.66" stroke-width="0.38"/>
<circle cx="48.4" cy="44.33" r="17" fill="none" stroke="url(#al-grv)" stroke-opacity="0.4" stroke-width="0.38"/>
<circle cx="48.4" cy="44.33" r="18.38" fill="none" stroke="url(#al-grv)" stroke-opacity="0.6" stroke-width="0.38"/>
<circle cx="48.4" cy="44.33" r="19.67" fill="none" stroke="url(#al-grv)" stroke-opacity="0.4" stroke-width="0.38"/>
<circle cx="48.4" cy="44.33" r="20.74" fill="none" stroke="url(#al-grv)" stroke-opacity="0.8" stroke-width="0.38"/>
<circle cx="48.4" cy="44.33" r="22.23" fill="none" stroke="url(#al-rim)" stroke-width="1.35"/>
<path d="M 66.83 56.77 L 66.32 57.62 L 65.75 58.44 L 65.15 59.22 L 64.5 59.98 L 63.82 60.71 L 63.1 61.41 L 62.34 62.07 L 61.56 62.69 L 60.74 63.28 L 59.89 63.82 L 59.02 64.32 L 58.13 64.78 L 57.21 65.2 L 56.28 65.57 L 55.33 65.9 L 54.36 66.18 L 53.39 66.43 L 52.4 66.63 L 51.41 66.78 L 50.41 66.89 L 49.4 66.96 L 48.4 66.98 L 47.39 66.96 L 46.39 66.89 L 45.39 66.78 L 44.39 66.63 L 43.41 66.43 L 42.43 66.18 L 41.46 65.9 L 40.51 65.57 L 39.58 65.2 L 38.66 64.78 L 37.77 64.32 L 36.9 63.82 L 36.05 63.28 L 35.24 62.69 L 34.45 62.07 L 33.7 61.41 L 32.98 60.71 L 32.29 59.98 L 31.64 59.22 L 31.04 58.44 L 30.47 57.62 L 29.96 56.77 L 29.96 56.77 L 30.59 57.53 L 31.24 58.27 L 31.91 58.99 L 32.61 59.67 L 33.34 60.33 L 34.08 60.96 L 34.85 61.55 L 35.65 62.12 L 36.46 62.65 L 37.3 63.14 L 38.15 63.61 L 39.02 64.03 L 39.9 64.43 L 40.8 64.79 L 41.72 65.1 L 42.65 65.38 L 43.59 65.61 L 44.54 65.81 L 45.5 65.96 L 46.46 66.06 L 47.43 66.13 L 48.4 66.15 L 49.36 66.13 L 50.33 66.06 L 51.29 65.96 L 52.25 65.81 L 53.2 65.61 L 54.14 65.38 L 55.07 65.1 L 55.99 64.79 L 56.89 64.43 L 57.77 64.03 L 58.64 63.61 L 59.49 63.14 L 60.33 62.65 L 61.14 62.12 L 61.94 61.55 L 62.71 60.96 L 63.46 60.33 L 64.18 59.67 L 64.88 58.99 L 65.55 58.27 L 66.2 57.53 L 66.83 56.77 Z" fill="#F6D55C" fill-opacity=".4"/>
<path d="M 27.06 48.87 L 26.84 47.91 L 26.68 46.94 L 26.56 45.96 L 26.49 44.98 L 26.47 44 L 26.49 43.01 L 26.56 42.02 L 26.68 41.04 L 26.84 40.07 L 27.04 39.1 L 27.29 38.14 L 27.59 37.2 L 27.93 36.27 L 28.31 35.36 L 28.74 34.47 L 29.2 33.59 L 29.7 32.74 L 30.24 31.91 L 30.82 31.11 L 31.43 30.33 L 32.08 29.58 L 32.76 28.86 L 33.47 28.18 L 34.21 27.52 L 34.98 26.9 L 35.78 26.31 L 36.6 25.77 L 37.45 25.25 L 38.32 24.78 L 39.21 24.35 L 40.11 23.95 L 41.04 23.6 L 41.98 23.29 L 42.93 23.03 L 43.89 22.8 L 44.87 22.62 L 45.85 22.48 L 46.83 22.39 L 47.82 22.34 L 48.81 22.34 L 49.8 22.39 L 50.78 22.48 L 51.76 22.62 L 52.73 22.8 L 53.69 23.03 L 54.64 23.3 L 55.58 23.61 L 56.49 23.97 L 57.39 24.38 L 58.27 24.82 L 59.13 25.3 L 59.96 25.83 L 59.96 25.83 L 59.1 25.36 L 58.22 24.92 L 57.33 24.52 L 56.42 24.15 L 55.5 23.83 L 54.57 23.54 L 53.63 23.3 L 52.67 23.1 L 51.71 22.94 L 50.74 22.82 L 49.77 22.74 L 48.8 22.7 L 47.83 22.71 L 46.86 22.75 L 45.89 22.85 L 44.93 22.98 L 43.97 23.16 L 43.02 23.38 L 42.08 23.64 L 41.16 23.95 L 40.25 24.29 L 39.36 24.68 L 38.48 25.1 L 37.63 25.57 L 36.8 26.07 L 35.99 26.61 L 35.2 27.19 L 34.44 27.8 L 33.72 28.44 L 33.02 29.12 L 32.35 29.83 L 31.71 30.56 L 31.11 31.33 L 30.54 32.12 L 30.01 32.93 L 29.52 33.77 L 29.06 34.63 L 28.64 35.51 L 28.27 36.4 L 27.93 37.32 L 27.63 38.24 L 27.37 39.18 L 27.15 40.13 L 26.98 41.09 L 26.84 42.05 L 26.75 43.02 L 26.69 44 L 26.68 44.98 L 26.72 45.95 L 26.79 46.93 L 26.91 47.9 L 27.06 48.87 Z" fill="#FFE9B6" fill-opacity=".62"/>
<circle cx="48.4" cy="44.33" r="10.9" fill="url(#al-label)"/>
<circle cx="48.4" cy="44.33" r="8.98" fill="none" stroke="#080B20" stroke-opacity=".11" stroke-width="0.3"/>
<circle cx="48.4" cy="44.33" r="3.89" fill="url(#al-hole)"/>
<path d="M 51.86 45.74 L 51.8 45.97 L 51.72 46.2 L 51.61 46.42 L 51.49 46.63 L 51.35 46.84 L 51.19 47.03 L 51.02 47.21 L 50.83 47.38 L 50.63 47.53 L 50.42 47.67 L 50.21 47.79 L 49.98 47.9 L 49.75 47.99 L 49.51 48.07 L 49.27 48.14 L 49.03 48.18 L 48.78 48.22 L 48.53 48.23 L 48.28 48.23 L 48.03 48.22 L 47.79 48.19 L 47.54 48.14 L 47.3 48.07 L 47.07 47.98 L 46.84 47.88 L 46.63 47.76 L 46.42 47.62 L 46.23 47.47 L 46.05 47.3 L 45.89 47.11 L 45.89 47.11 L 46.1 47.24 L 46.31 47.35 L 46.52 47.46 L 46.73 47.56 L 46.95 47.64 L 47.16 47.71 L 47.39 47.78 L 47.61 47.83 L 47.84 47.87 L 48.06 47.9 L 48.29 47.91 L 48.52 47.91 L 48.75 47.9 L 48.98 47.87 L 49.2 47.82 L 49.42 47.76 L 49.64 47.69 L 49.85 47.6 L 50.06 47.51 L 50.26 47.39 L 50.45 47.27 L 50.63 47.13 L 50.81 46.99 L 50.98 46.83 L 51.15 46.67 L 51.31 46.5 L 51.46 46.32 L 51.6 46.13 L 51.73 45.94 L 51.86 45.74 Z" fill="#FFD280" fill-opacity=".34"/>
</g>
<g fill="url(#al-lit)">
<ellipse cx="18.26" cy="68.37" rx="4.51" ry="3.47" transform="rotate(-25 18.26 68.37)"/>
<path d="M 22.24 47.89 C 22.33 48 22.61 48.3 22.77 48.53 C 22.93 48.77 23.06 49.02 23.2 49.28 C 23.34 49.55 23.45 49.85 23.63 50.14 C 23.81 50.42 24.04 50.71 24.27 50.99 C 24.5 51.28 24.75 51.56 25.02 51.85 C 25.29 52.13 25.59 52.42 25.87 52.7 C 26.16 52.99 26.48 53.27 26.73 53.56 C 26.98 53.84 27.17 54.13 27.37 54.41 C 27.57 54.7 27.74 54.97 27.9 55.27 C 28.07 55.57 28.21 55.91 28.33 56.23 C 28.46 56.55 28.56 56.87 28.65 57.19 C 28.74 57.51 28.81 57.82 28.87 58.15 C 28.92 58.49 28.97 58.87 28.97 59.22 C 28.97 59.58 28.92 59.94 28.87 60.29 C 28.81 60.65 28.74 61 28.65 61.36 C 28.56 61.72 28.46 62.07 28.33 62.43 C 28.21 62.79 28.07 63.18 27.9 63.5 C 27.74 63.82 27.51 64.09 27.37 64.35 C 27.23 64.62 27.23 65.08 27.05 65.1 C 26.87 65.12 26.43 64.71 26.3 64.46 C 26.18 64.21 26.21 63.91 26.3 63.61 C 26.39 63.3 26.68 62.93 26.84 62.64 C 27 62.36 27.14 62.13 27.26 61.9 C 27.39 61.66 27.5 61.52 27.58 61.25 C 27.67 60.99 27.74 60.63 27.8 60.29 C 27.85 59.95 27.9 59.58 27.9 59.22 C 27.9 58.87 27.87 58.49 27.8 58.15 C 27.73 57.82 27.62 57.5 27.48 57.19 C 27.33 56.89 27.16 56.6 26.94 56.34 C 26.73 56.07 26.48 55.84 26.19 55.59 C 25.91 55.34 25.59 55.09 25.23 54.84 C 24.88 54.59 24.41 54.34 24.06 54.09 C 23.7 53.84 23.34 53.67 23.1 53.34 C 22.85 53.02 22.69 52.7 22.56 52.17 C 22.44 51.63 22.38 50.48 22.35 50.14 Z"/>
<path d="M 22.13 48.53 L 22.13 68.42" fill="none" stroke="url(#al-lit)" stroke-width="1.34" stroke-linecap="round"/>
</g>
<g>
<path d="M 37.52 69.81 C 38.2 69.77 40.2 69.48 41.59 69.59 C 42.98 69.7 44.44 70 45.86 70.45 C 47.29 70.89 48.69 71.66 50.14 72.26 C 51.58 72.87 53.79 73.78 54.52 74.08 L 55.27 87.66 C 54.36 87.23 51.37 85.71 49.82 85.09 C 48.27 84.47 47.29 84.18 45.97 83.91 C 44.65 83.65 43.4 83.43 41.91 83.49 C 40.41 83.54 37.81 84.11 36.99 84.24 L 37.52 69.81 Z" fill="url(#al-pgL)"/>
<path d="M 54.52 74.08 C 54.97 73.6 56.21 72.07 57.19 71.19 C 58.17 70.32 59.26 69.56 60.4 68.84 C 61.54 68.13 62.68 67.54 64.03 66.92 C 65.39 66.3 67.77 65.4 68.52 65.1 L 72.16 78.89 C 71.43 79.09 69.25 79.55 67.77 80.07 C 66.3 80.58 64.71 81.22 63.29 81.99 C 61.86 82.76 60.49 83.72 59.22 84.66 C 57.96 85.61 56.28 87.16 55.7 87.66 L 54.52 74.08 Z" fill="url(#al-pgR)"/>
<g fill="none" stroke="url(#al-lit)" stroke-linecap="round" stroke-linejoin="round">
<g stroke-width="1.41">
<path d="M 55.27 87.66 C 54.36 87.23 51.37 85.71 49.82 85.09 C 48.27 84.47 47.29 84.18 45.97 83.91 C 44.65 83.65 43.4 83.43 41.91 83.49 C 40.41 83.54 37.81 84.11 36.99 84.24"/>
<path d="M 72.16 78.89 C 71.43 79.09 69.25 79.55 67.77 80.07 C 66.3 80.58 64.71 81.22 63.29 81.99 C 61.86 82.76 60.49 83.72 59.22 84.66 C 57.96 85.61 56.28 87.16 55.7 87.66"/>
<path d="M 68.52 65.1 L 72.16 78.89"/>
<path d="M 54.52 74.08 L 55.48 87.76"/>
<path d="M 35.39 72.58 L 34.32 88.51 C 35.17 88.42 37.61 88.12 39.45 87.98 C 41.28 87.83 43.42 87.62 45.33 87.66 C 47.23 87.69 49.34 87.96 50.89 88.19 C 52.44 88.42 54 88.9 54.63 89.05"/>
<path d="M 70.77 67.99 L 76.97 82.63 C 76.15 82.85 73.76 83.5 72.05 83.91 C 70.34 84.32 68.49 84.63 66.71 85.09 C 64.92 85.55 63.07 86.14 61.36 86.69 C 59.65 87.25 57.26 88.12 56.44 88.4"/>
</g>
<g stroke-width="1.41" stroke="url(#al-litUp)">
<path d="M 37.52 69.81 C 38.2 69.77 40.2 69.48 41.59 69.59 C 42.98 69.7 44.44 70 45.86 70.45 C 47.29 70.89 48.69 71.66 50.14 72.26 C 51.58 72.87 53.79 73.78 54.52 74.08"/>
<path d="M 54.52 74.08 C 54.97 73.6 56.21 72.07 57.19 71.19 C 58.17 70.32 59.26 69.56 60.4 68.84 C 61.54 68.13 62.68 67.54 64.03 66.92 C 65.39 66.3 67.77 65.4 68.52 65.1"/>
<path d="M 36.99 84.24 L 37.52 69.81"/>
</g>
<g stroke-width="1.2">
<path d="M 34.32 89.47 L 35.17 92.57 C 35.98 92.47 38.11 92.18 39.98 91.93 C 41.85 91.68 44.22 91.41 46.4 91.08 C 48.57 90.74 51.92 90.1 53.02 89.9"/>
<path d="M 76.43 84.24 L 76.86 87.01 C 76.06 87.14 73.92 87.5 72.05 87.76 C 70.18 88.03 67.63 88.37 65.64 88.62 C 63.64 88.87 61 89.15 60.08 89.26"/>
</g>
</g>
<ellipse cx="55.48" cy="87.98" rx="1.82" ry="1.34" fill="url(#al-lit)"/>
</g>
</svg>